<svg xmlns="http://www.w3.org/2000/svg" viewBox="0 0 884.33 884.33"><defs><style>.cls-1{fill:#fff;}.cls-2{fill:#0b70ff;}</style></defs><g id="Layer_2" data-name="Layer 2"><g id="图层_1" data-name="图层 1"><circle class="cls-1" cx="442.16" cy="442.16" r="442.16"/><path d="M566,456.24c-8.5-12.61-29-19.34-43.67-23.3-1.71-.45-3.49-.9-5.38-1.37l-.14,0c-7.91-2-16.87-4.21-23.85-8-8-4.38-11.93-10.06-11.93-17.36a17.71,17.71,0,0,1,.33-3.53l.05-.21c.11-.52.25-1.05.41-1.59l.07-.21,0-.08a20.46,20.46,0,0,1,5.06-8c5.93-6,15.4-9.37,26-9.37h.34a56,56,0,0,1,22.56,5.31,61,61,0,0,1,18.81,13.34L554.8,417v.17H568V371.4H554.8v10.38a.46.46,0,0,1-.2.39c-.12,0-.28-.09-.36-.17a67.94,67.94,0,0,0-18.4-9.91,71,71,0,0,0-22-3.82c-8.58,0-15.6,1-21.47,2.91A41.42,41.42,0,0,0,479,378.61,35,35,0,0,0,469,391.24a35.83,35.83,0,0,0-3.45,15.18,31.8,31.8,0,0,0,1.15,9.21,34.13,34.13,0,0,0,4.49,9.29,9.21,9.21,0,0,0,.55.79l.28.38.11.16c8.67,11.92,28,17.24,42.08,21.13l.38.11,3.13.86,3.4.91a138.94,138.94,0,0,1,21.47,7.17,25.41,25.41,0,0,1,9.36,7.08,22,22,0,0,1,4.59,9.83,21.52,21.52,0,0,1-.79,10.77A27.35,27.35,0,0,1,549,494.66a32,32,0,0,1-11.42,6.51,47.65,47.65,0,0,1-12.67,2.27,63.86,63.86,0,0,1-20.42-2.31c-11.24-3.56-21.52-10.43-28.18-18.82a2.71,2.71,0,0,1-.48-.92l-.13-13.08v-.17H462.5V516h13.21V502A57.47,57.47,0,0,0,494.55,513a78.07,78.07,0,0,0,25.27,4.82h1.07c7.32,0,24.48,0,37.92-11.39A38.91,38.91,0,0,0,567.9,495a40,40,0,0,0,4.25-13.38,37.44,37.44,0,0,0-.62-13.51A31.06,31.06,0,0,0,566,456.24Z"/><path d="M435.69,456.23c-8.34-12.56-28.91-19.31-43.67-23.29-1.68-.44-3.42-.87-5.27-1.32-16-4-35.93-8.89-36.16-25.46a17.52,17.52,0,0,1,1.59-7.27,21.78,21.78,0,0,1,4.51-6.4c6-5.92,15.42-9.32,25.94-9.32H383a55.78,55.78,0,0,1,22.54,5.31,59.83,59.83,0,0,1,18.7,13.34l.26,15.21v.17h13.2V371.4H424.47v10.38c0,.14-.08.34-.2.38s-.21,0-.36-.16a67.81,67.81,0,0,0-18.4-9.91,71,71,0,0,0-22-3.82c-8.63,0-15.67,1-21.52,2.91a41.45,41.45,0,0,0-13.29,7.43,35,35,0,0,0-10.06,12.63,35.85,35.85,0,0,0-3.46,15.18,32.27,32.27,0,0,0,1.14,9.21,35.44,35.44,0,0,0,4.37,9.29c8.29,12.92,28.58,18.47,43.39,22.53l.34.09,2.94.81,3.1.83.3.08a138.94,138.94,0,0,1,21.47,7.17,25.84,25.84,0,0,1,9.4,7.13,22.09,22.09,0,0,1,4.61,9.92,21.55,21.55,0,0,1-.81,10.78,27.2,27.2,0,0,1-6.73,10.53,31.22,31.22,0,0,1-11.37,6.49,47.21,47.21,0,0,1-12.68,2.22c-.9,0-1.83.07-2.77.07A65.27,65.27,0,0,1,374,501.13c-.67-.21-1.35-.44-2-.68l-.11,0c-1.35-.48-2.7-1-4-1.6A60.43,60.43,0,0,1,350.26,487l-.26-.25c-.81-.79-1.61-1.65-2.4-2.54l-.6-.68c-.34-.41-.69-.82-1-1.24a2.71,2.71,0,0,1-.47-.91l-.13-13.08v-.17H332V516h13.35V502A57.47,57.47,0,0,0,364.22,513a78.07,78.07,0,0,0,25.27,4.82h1.06c7.29,0,24.36,0,37.93-11.39A39.07,39.07,0,0,0,437.57,495a40,40,0,0,0,4.25-13.38,37.44,37.44,0,0,0-.62-13.51A31.17,31.17,0,0,0,435.69,456.23Z"/><path d="M300.3,504.67l-36.09-54.55A39.75,39.75,0,0,0,282,446.68c7.89-4,14.23-9.08,18.12-16.58a43.67,43.67,0,0,0,4.77-20,41.62,41.62,0,0,0-12-29.21c-8.31-7.57-18.71-11.26-31.8-11.26H191.13v15.1H206v120.1H189.85v12.62h46.84V504.85H221.6V450.34h25.25l35.36,54.51H266.09v12.62h50.43V504.85H300.8A.64.64,0,0,1,300.3,504.67ZM221.6,384.06h38.68c11.88,0,21,4.72,25.62,12.83a26.83,26.83,0,0,1-.43,26.47c-4.73,8.05-10.33,12.42-22.75,12.42H221.6Z"/><path d="M692.61,473.77c0-18.12-9.16-31.2-24.34-36.81,12.9-6.78,18.56-17.88,18.56-29.33,0-26.41-22.17-40.43-51.08-40.43-15.79.12-32.65,5.38-44.1,21.5l12.05,7.83c6.38-8.65,15.54-15.31,32-15.31,21,0,35.9,8.53,35.9,24.78,0,15.54-14.94,24.18-30.24,24.18H620.57v15h22c19.52,0,34.94,10.51,34.45,28.39-1.08,19.05-17.82,29.21-39.75,29.21-14.09,0-29.76-4.44-41.44-16.94l-.61-.23L585,496.78l.49.12c14.69,13.79,32.16,20.92,51.8,20.92C667.55,517.82,692.61,501.46,692.61,473.77Z"/><rect class="cls-2" x="142.14" y="435.68" width="37.98" height="15.51"/><rect class="cls-2" x="708.4" y="435.68" width="37.98" height="15.51"/></g></g></svg>